<?xml version="1.0" encoding="UTF-8"?>
<svg version="1.1" viewBox="0 0 2000 2000" width="1280" height="1280" xmlns="http://www.w3.org/2000/svg">
<path transform="translate(690,53)" d="m0 0h53l22 2 20 4 24 8 18 8 20 10 14 10 10 9 9 8 8 6 7 8 7 9 7 11 6 8 9 15 9 20 8 29 3 15 2 16 1 745 1 21 4 23 7 24 11 28 8 13 12 17 12 14 9 10 8 8 19 14 13 8 21 12 20 8 16 4 46 6v1l-216-1-25-2-27-5-16-5-16-8-15-8-18-12-10-7-9-8-7-8-17-17-9-14-8-14-7-12-11-26-5-21-3-26-1-30v-606l-2-20-3-11-6-15-6-11-7-9-9-11-11-10-13-8-15-6-18-5-5-1h-22l-17 4-19 7-10 6-11 9-14 14-8 13-8 17-5 15-1 6-1 70v747l1 44 4 17 7 17 9 15 8 10 8 8 17 11 14 7 18 6 13 2 957 1 26 3 32 8 16 6 23 12 11 8 13 10 9 7 12 12 8 11 8 9 11 17 8 15 13 32 6 21 3 16 1 9v244l-3 22-5 21-7 19-13 29-11 16-20 25-15 14-13 10-9 7-30 15-13 6-22 7-15 3-18 2h-1085l-23-3-21-6-13-5-17-8-21-12-18-13-9-7-22-22-10-15-12-21-11-23-8-24-4-20-1-9-1-222h1l2 18 6 26 8 22 8 16 12 21 6 10 13 14 7 8 13 13 12 8 18 13 17 9 20 7 24 7 14 3 17 2h956l17-2 15-5 24-11 10-9 11-11 12-16 5-11 7-27v-23l-5-23-6-15-9-14-10-11-8-7-12-9-12-7-17-6-7-2-25-1-953-1-23-3-21-6-13-5-21-10-18-11-12-8-10-8-7-8-14-14-9-10-8-13-9-15-8-16-7-16-6-20-3-16-1-9v-1096l3-21 7-24 8-18 12-23 11-17 12-14 7-8 15-14 16-12 14-9 25-11 15-6 23-7 16-3 13-1z" fill="#00B7EB"/>
<path transform="translate(1493,1528)" d="m0 0h78l32 2 25 6 15 5 36 18 14 10 13 11 8 7 10 10 10 13 8 11 9 13 7 15 7 16 7 20 6 21v58l-5 25-6 20-16 36-11 16-20 25-15 14-13 10-9 7-30 15-13 6-22 7-15 3-18 2h-1085l-23-3-21-6-13-5-17-8-21-12-18-13-9-7-22-22-10-15-12-21-11-23-8-24-4-20-1-9-1-222h1l2 18 6 26 8 22 8 16 12 21 6 10 13 14 7 8 13 13 12 8 18 13 17 9 20 7 24 7 14 3 17 2h956l17-2 15-5 24-11 10-9 11-11 12-16 5-11 7-27v-23l-5-23-6-15-9-14-10-11-8-7-12-9-12-7-10-4z" fill="#027CBD"/>
<path transform="translate(702,54)" d="m0 0h54l20 3 19 5 16 6 16 7 20 10 14 10 10 9 9 8 8 6 7 8 7 9 7 11 6 8 9 15 9 20 8 29 3 15 2 16 1 745 1 21 4 23 7 24 11 28 8 13 12 17 12 14 9 10 8 8 19 14 13 8 21 12 20 8 16 4 46 6v1l-216-1-25-2-27-5-16-5-16-8-15-8-18-12-10-7-9-8-7-8-17-17-9-14-8-14-7-12-11-26-5-21-3-26-1-30v-606l-2-20-3-11-6-15-6-11-7-9-9-11-11-10-13-8-15-6-18-5-5-1h-22l-17 4-19 7-10 6-11 9-14 14-8 13-8 17-5 15-1 6-4 1-3-25v-86l2-13 3-15 3-13 3-7 6-18 6-13 6-12 7-12 9-10 5-6 4-7h2l2-4 8-8 6-5h2v-2l10-8h2v-2l10-7 13-7 26-13 23-7 5-2z" fill="#017CBD"/>
<path transform="translate(690,53)" d="m0 0h53v1l-41 1-13 2h-15l-21 6-14 5-9 5-19 9-16 10-12 9-14 12-13 12-9 11-8 12-12 19-8 15-6 17-5 22-3 16-1 9-1 33v939l2 28 5 19 8 17 10 13 16 16 14 9 14 6 17 5 12 2 30 1 614-1h155l161 1 20 2 22 5 21 8 26 12 11 6 16 11v2l4 2 12 11 6 5 6 7v2h2l8 11 12 19 12 22 7 16 7 20 3 23 1 16v95l-2 5-6-5-7-10-5-7-1-5-2-57-4-24-9-30-7-17-7-14-6-9-9-13-9-12-11-12-13-12-8-7-10-7-26-15-23-10-14-4-25-4-20-2h-111l-109-1h-733l-19-3-12-4-12-6-15-10-12-11-7-8-8-12-10-19-5-20-1-11-1-41v-908l1-51 1-16 5-24 8-23 7-15 12-25 10-13 9-11h2l2-4 2-3h2l2-4 10-9 11-9 15-11 24-12 23-9 27-7 6-3 5-1z" fill="#00F9FE"/>
<path transform="translate(674,56)" d="m0 0 11 1v1l-9 2-8 3-18 6-26 13-16 9-3 3h-2v2l-10 8h-2v2l-11 9-7 8h-2l-1 4-6 8-7 8h-2l-2 5-4 7-6 11-6 13-4 10-3 7-3 11-2 7-3 10-3 22-1 3v86l2 25h2l1-2v818l1 44 4 17 7 17 9 15 8 10 8 8 17 11 14 7 18 6 13 2 957 1 26 3 32 8 16 6 23 12 11 8 13 10 9 7 12 12 8 11 8 9 11 17 8 15 13 32 6 21 3 16 1 9v244h-1l-1-48-2-7-6-20-7-19-11-23-5-9-9-12-8-11-9-11-12-12-11-9-12-9-14-8-24-12-16-6-23-6-17-2-20-1h-78l-1 2-10-2-12-2v-4l2-1 12-1 54-1h37l28 3 18 5 21 7 24 13 12 6 9 5 6 4 5 5 11 8v2l4 2 4 3v2l4 2 8 9 11 19 9 12v2l4 2 2 2 1-4v-102l-2-19-3-17-9-24-10-19-10-18-8-12-7-9v-2h-2l-6-7v-2l-4-2-10-10-8-6v-2l-5-2-11-8-16-8-23-11-19-7-22-5-21-2-174-1h-145l-611 1-29-1-15-3-17-5-16-8-11-8-17-17-9-13-7-15-5-19-2-30v-948l1-22 3-19 3-15 5-20 5-12 11-20 8-12 11-16 14-15 14-12 11-9 10-7 9-6 16-8 11-5 8-4 13-5z" fill="#00B7EB"/>
<path transform="translate(702,54)" d="m0 0h54l20 3 19 5 16 6 16 7 20 10 14 10 10 9 9 8 8 6 7 8 7 9 7 11 6 8 9 15 9 20 8 29 3 15 2 16 1 745 1 21 4 23 7 24 11 28 8 13 12 17 12 14 9 10 8 8 19 14 13 8 21 12 20 8 16 4 20 3-4 2h-28l-1-2-5-1 2-1v-2l-19-1-17-6-8-4v-2l-5-1-16-9-14-9-14-10-10-9-15-15-11-15-9-13-5-9-8-15-5-14-4-13-5-25-2-18-1-18v-712l-2-33-4-26-7-25-6-15-5-10-6-11-9-13-13-15-11-11-16-12-13-9-15-8-15-6-14-4-29-4h-23l-23 2-25 6-21 8-22 12-14 9-12 9-10 9-9 10-5 6h-2l-2 4-7 9-7 10-9 15-10 21-10 30-3 15-1 10v49l-8 14-6 13-5 15-1 6-4 1-3-25v-86l2-13 3-15 3-13 3-7 6-18 6-13 6-12 7-12 9-10 5-6 4-7h2l2-4 8-8 6-5h2v-2l10-8h2v-2l10-7 13-7 26-13 23-7 5-2z" fill="#075276"/>
<path transform="translate(312,1569)" d="m0 0h2l7 24 10 24 14 24 5 9 12 14 12 13 7 8 16 11 18 13 17 9 20 7 24 7 14 3 17 2h956l17-2 15-5 24-11 10-9 11-11 12-16 5-11 4-15h2l1-5 1 4-1 17-5 21-4 10-7 12-9 11h-2l-2 4-4 5-18 13-14 7-16 5-11 2-16 1-190-1h-560l-158 1-45-1-22-3-28-7-19-7-19-10-14-9-14-10-7-6v-2l-4-2-8-8v-2h-2l-18-22-7-12-6-11-8-14-8-19-3-9-3-6-1-21z" fill="#075478"/>
<path transform="translate(1493,1528)" d="m0 0h78l32 2 25 6 15 5 36 18 14 10 13 11 8 7 10 10 10 13 8 11 9 13 7 15 7 16 7 20 6 21v58l-5 25-6 20-16 36-11 16-12 15-4 3-2-1 2-4h2l1-7 6-9 8-18 5-14 3-7 5-21 2-22v-34l-3-26-4-21-8-20-8-16-10-17-10-14-13-15-6-7-5-5-12-10-11-7-10-7-18-10-17-7-25-7-23-4-30-2h-23l-13-8-10-5-5-2z" fill="#074F72"/>
<path transform="translate(312,1589)" d="m0 0h1l1 15 4 10 5 13 7 15 8 13 4 8 8 13 8 10 8 9v2h2l7 8 5 4 5 5 7 6 15 10 19 11 13 6 21 7 21 5 22 3 51 1 161-1h577l164 1 16-1 15-3 19-7 10-6 12-9 3-1 2-4 4-5 5-5 9-12 4-7 4-14 3-11 1-5 1-17 2-6 1 3 1 5-2 9-2 20-5 13-6 12-10 13-9 10-7 7-10 7-12 6-7 3-15 5-9 2-30 1h-920l-23-1-21-3-24-6-16-5-16-8-17-10-15-10-14-12-8-7-8-8-7-8-3-4v-2h-2l-12-17-5-7-6-11-7-14v-3l-5-4-3-1z" fill="#066CA4"/>
<path transform="translate(836,102)" d="m0 0 5 2 16 12 12 11 8 8 9 11 9 13 6 11 8 17 7 21 4 16 3 22 2 36v709l2 30 5 27 3 12 3 9 5 12 7 13 9 15 8 11 10 13 19 19 17 12 10 7 11 6 14 7v2l5 1 8 4 12 4 17 1 2 1 1 3 2 1 1-2v2l2 1-2 1h-25v-3l-9-4-5-2v-2l-9-3-12-6-10-7-15-10-14-10-10-10-3-2v-2l-4-2-12-13-13-18-12-19-4-9-5-11-6-20-6-29-2-28v-25l1-45 1-94v-475l-1-83-2-29-3-19-6-22-8-21-8-16-7-11-3-4v-2h-2l-6-8-2-4h-2l-7-8-12-11-17-13z" fill="#066BA3"/>
<path transform="translate(1535,1520)" d="m0 0h40l28 3 18 5 21 7 24 13 12 6 9 5 6 4 5 5 11 8v2l4 2 4 3v2l4 2 8 9 11 19 9 12 8 13 1 3 5 2v2l3 1 1 4 4 1 4 5 2 1 1-4 1 49v50h-1l-1-48-2-7-6-20-7-19-11-23-5-9-9-12-8-11-9-11-12-12-11-9-12-9-14-8-24-12-16-6-23-6-17-2-20-1h-78l-1 2-10-2-12-2v-4l2-1 12-1z" fill="#027ABB"/>
<path transform="translate(702,54)" d="m0 0h20v1l-17 1-14 3-25 8-17 7-22 11-11 7-9 7h-2v2l-5 2v2l-8 7-10 9-8 9-8 11-9 12-9 16-5 11-6 15-7 23-4 22-1 12-1 83v16l1 2-1 6-4 1-3-25v-86l2-13 3-15 3-13 3-7 6-18 6-13 6-12 7-12 9-10 5-6 4-7h2l2-4 8-8 6-5h2v-2l10-8h2v-2l10-7 13-7 26-13 23-7 5-2z" fill="#0278B7"/>
<path transform="translate(1529,1546)" d="m0 0h14l30 2 23 4 25 7 17 7 18 10 5 4 7 4 11 8 11 9 2 4 4 2 7 8 12 14 11 16 10 18 7 14 7 18 4 21 3 26v37l-2 19-5 21-10 26-7 14-6 10-1 5-2 1v3l3-2-2 4-7 8h-4l-1 2-1-6 3-6h2l1-7 6-8 7-13 6-9 2-4 2-9 2-2 2-11 2-2 4-24 1-5 1-26v-13l-2-20-4-23-7-20-7-15-8-16-14-21-9-10-12-14-2-4-4-2-10-8-16-10-14-9-16-8-15-5-27-6-30-3-21-1-8 1-6-3v-1z" fill="#066CA4"/>
<path transform="translate(1160,1325)" d="m0 0h237l20 1-4 2-7 2-12 1-103 1-118-1-26-2h-7v-3z" fill="#027CBD"/>
<path transform="translate(521,543)" d="m0 0h1v424h-1l-1-21-1-6-1-164v-197l1-21h1z" fill="#01FAFF"/>
<path transform="translate(736,76)" d="m0 0h23l29 4 20 6 12 6-2 1-14-6-19-5-21-3h-30l-26 3-24 6-25 12-11 6-9 6-16 11-10 10h-2v2h-2l-2 4-5 6h-2l-2 4-10 11-8 12-12 21-8 17-6 16-3 9-3 15-1 10v32l1 10-3 8h-1l-1-10v-38l3-21 6-20 6-16 9-19 9-15 12-17 5-6 4-4h2l2-4 15-16 18-13 18-11 17-9 22-8 22-5z" fill="#056CA4"/>
<path transform="translate(1740,1618)" d="m0 0 4 2 11 17 3 4v2l5 2v2l3 1 1 4 4 1 4 5 2 1 1-4 1 49v50h-1l-1-48-2-7-6-20-7-19-11-23-5-9-6-8z" fill="#027ABA"/>
<path transform="translate(1493,1526)" d="m0 0h55l37 1 25 3 18 5-4 1-21-5-32-2h-78l-1 2-4-1v-2h-5v-1z" fill="#056CA4"/>
<path transform="translate(1090,1195)" d="m0 0 9 1 16 3 13 2-4 2h-28l-1-2-5-1 2-1v-2h-2z" fill="#065B82"/>
<path transform="translate(1739,1406)" d="m0 0 3 1 11 19 11 25 4 10v6l-2-1-2-5-2-7-5-12-14-28-4-6z" fill="#018CC9"/>
<path transform="translate(1128,1201)" d="m0 0 26 3v1h-15l-37-1v-1l22-1z" fill="#00B2E7"/>
<path transform="translate(394,96)" d="m0 0h4l-2 5-3 1-1 3-6 1 3-6z" fill="#018DC9"/>
<path transform="translate(412,84)" d="m0 0h4l-1 3h-4v2l-6 3-2 3-4-1 5-5z" fill="#0197CF"/>
<path transform="translate(309,1540)" d="m0 0h1l2 18 1 7-4-1z" fill="#29C1EC"/>
<path transform="translate(1760,1447)" d="m0 0h2l6 14v6l-2-1-2-5-2-7z" fill="#0192CD"/>
<path transform="translate(532,1251)" d="m0 0 3 3 8 13-1 4-8-13z" fill="#0185C4"/>
<path transform="translate(1134,1202)" d="m0 0 14 1 6 1v1h-15l-7-1z" fill="#FDFDFD"/>
<path transform="translate(1740,1618)" d="m0 0 4 2 6 9-1 4-8-12z" fill="#0375B3"/>
<path transform="translate(354,136)" d="m0 0 2 1-2 6-2 1-1 2h-2l2-7z" fill="#1393CD"/>
<path transform="translate(1709,1371)" d="m0 0 4 1 8 8-1 2-5-4v-2h-2z" fill="#0A95CF"/>
<path transform="translate(1156,1205)" d="m0 0 2 1z" fill="#FDFDFD"/>
</svg>
